<svg id="icon-twitter" viewBox="0 0 512 512">
    <title>Twitter</title>
    <path d="M 459.37 151.716 c 0.325 4.548 0.325 9.097 0.325 13.645 c 0 138.72 -105.583 298.558 -298.558 298.558 c -59.452 0 -114.68 -17.219 -161.137 -47.106 c 8.447 0.974 16.568 1.299 25.34 1.299 c 49.055 0 94.213 -16.568 130.274 -44.832 c -46.132 -0.975 -84.792 -31.188 -98.112 -72.772 c 6.498 0.974 12.995 1.624 19.818 1.624 c 9.421 0 18.843 -1.3 27.614 -3.573 c -48.081 -9.747 -84.143 -51.98 -84.143 -102.985 v -1.299 c 13.969 7.797 30.214 12.67 47.431 13.319 c -28.264 -18.843 -46.781 -51.005 -46.781 -87.391 c 0 -19.492 5.197 -37.36 14.294 -52.954 c 51.655 63.675 129.3 105.258 216.365 109.807 c -1.624 -7.797 -2.599 -15.918 -2.599 -24.04 c 0 -57.828 46.782 -104.934 104.934 -104.934 c 30.213 0 57.502 12.67 76.67 33.137 c 23.715 -4.548 46.456 -13.32 66.599 -25.34 c -7.798 24.366 -24.366 44.833 -46.132 57.827 c 21.117 -2.273 41.584 -8.122 60.426 -16.243 c -14.292 20.791 -32.161 39.308 -52.628 54.253 Z"/>
</svg>